<svg width="37" height="16" viewBox="0 0 37 16" fill="none" xmlns="http://www.w3.org/2000/svg">
<path d="M0.511364 0.454545H2.52841L6.5625 7.24432H6.73295L10.767 0.454545H12.7841L7.52841 9.00568V15H5.76705V9.00568L0.511364 0.454545ZM16.6193 15.2557C15.928 15.2557 15.3007 15.1255 14.7372 14.8651C14.1738 14.5999 13.7263 14.2188 13.3949 13.7216C13.0634 13.2197 12.8977 12.6136 12.8977 11.9034C12.8977 11.2784 13.0208 10.7718 13.267 10.3835C13.5133 9.99053 13.8423 9.68276 14.2543 9.46023C14.6662 9.23769 15.1207 9.07197 15.6179 8.96307C16.1198 8.84943 16.6241 8.75947 17.1307 8.69318C17.7936 8.60795 18.331 8.54403 18.7429 8.50142C19.1596 8.45407 19.4626 8.37595 19.652 8.26705C19.8461 8.15814 19.9432 7.96875 19.9432 7.69886V7.64205C19.9432 6.94129 19.7514 6.39678 19.3679 6.00852C18.9891 5.62027 18.4138 5.42614 17.642 5.42614C16.8419 5.42614 16.2145 5.60133 15.7599 5.9517C15.3054 6.30208 14.9858 6.67614 14.8011 7.07386L13.2102 6.50568C13.4943 5.8428 13.8731 5.3267 14.3466 4.95739C14.8248 4.58333 15.3456 4.32292 15.9091 4.17614C16.4773 4.02462 17.036 3.94886 17.5852 3.94886C17.9356 3.94886 18.3381 3.99148 18.7926 4.0767C19.2519 4.1572 19.6946 4.32528 20.1207 4.58097C20.5516 4.83665 20.9091 5.22254 21.1932 5.73864C21.4773 6.25473 21.6193 6.94602 21.6193 7.8125V15H19.9432V13.5227H19.858C19.7443 13.7595 19.5549 14.0128 19.2898 14.2827C19.0246 14.5526 18.6719 14.7822 18.2315 14.9716C17.7912 15.161 17.2538 15.2557 16.6193 15.2557ZM16.875 13.75C17.5379 13.75 18.0966 13.6198 18.5511 13.3594C19.0104 13.099 19.3561 12.7628 19.5881 12.3509C19.8248 11.9389 19.9432 11.5057 19.9432 11.0511V9.51705C19.8722 9.60227 19.7159 9.6804 19.4744 9.75142C19.2377 9.81771 18.9631 9.87689 18.6506 9.92898C18.3428 9.97633 18.0421 10.0189 17.7486 10.0568C17.4598 10.09 17.2254 10.1184 17.0455 10.142C16.6098 10.1989 16.2027 10.2912 15.8239 10.419C15.4498 10.5421 15.1468 10.7292 14.9148 10.9801C14.6875 11.2263 14.5739 11.5625 14.5739 11.9886C14.5739 12.571 14.7893 13.0114 15.2202 13.3097C15.6558 13.6032 16.2074 13.75 16.875 13.75ZM29.3945 15H24.9059V0.454545H29.5934C31.0044 0.454545 32.2118 0.745738 33.2156 1.32812C34.2193 1.90578 34.9888 2.73674 35.5238 3.82102C36.0588 4.90057 36.3263 6.19318 36.3263 7.69886C36.3263 9.21401 36.0565 10.5185 35.5167 11.6122C34.9769 12.7012 34.1909 13.5393 33.1587 14.1264C32.1265 14.7088 30.8718 15 29.3945 15ZM26.6673 13.4375H29.2809C30.4835 13.4375 31.4802 13.2055 32.271 12.7415C33.0617 12.2775 33.6512 11.617 34.0394 10.7599C34.4277 9.90294 34.6218 8.88258 34.6218 7.69886C34.6218 6.52462 34.43 5.51373 34.0465 4.66619C33.663 3.81392 33.0901 3.16051 32.3278 2.70597C31.5655 2.24669 30.6161 2.01705 29.4798 2.01705H26.6673V13.4375Z" fill="#FC3F1D"/>
</svg>
